<svg width="366" height="315" viewBox="0 0 366 315" fill="none" xmlns="http://www.w3.org/2000/svg">
<rect width="366" height="315" fill="black"/>
<path fill-rule="evenodd" clip-rule="evenodd" d="M283 78C283 66.9543 274.046 58 263 58H103C91.9543 58 83 66.9543 83 78V238C83 249.046 91.9543 258 103 258H263C274.046 258 283 249.046 283 238V78ZM271.235 89.7647C271.235 78.719 262.281 69.7647 251.235 69.7647H114.765C103.719 69.7647 94.7647 78.719 94.7647 89.7647V226.235C94.7647 237.281 103.719 246.235 114.765 246.235H251.235C262.281 246.235 271.235 237.281 271.235 226.235V89.7647Z" fill="white"/>
</svg>
